<?xml version="1.0" encoding="UTF-8"?>
<!DOCTYPE svg PUBLIC "-//W3C//DTD SVG 1.1//EN" "http://www.w3.org/Graphics/SVG/1.1/DTD/svg11.dtd">
<svg version="1.2" width="903.11mm" height="903.11mm" viewBox="0 0 90311 90311" preserveAspectRatio="xMidYMid" fill-rule="evenodd" stroke-width="28.222" stroke-linejoin="round" xmlns="http://www.w3.org/2000/svg" xmlns:ooo="http://xml.openoffice.org/svg/export" xmlns:xlink="http://www.w3.org/1999/xlink" xmlns:presentation="http://sun.com/xmlns/staroffice/presentation" xmlns:smil="http://www.w3.org/2001/SMIL20/" xmlns:anim="urn:oasis:names:tc:opendocument:xmlns:animation:1.0" xml:space="preserve">
 <defs class="ClipPathGroup">
  <clipPath id="presentation_clip_path" clipPathUnits="userSpaceOnUse">
   <rect x="0" y="0" width="90311" height="90311"/>
  </clipPath>
  <clipPath id="presentation_clip_path_shrink" clipPathUnits="userSpaceOnUse">
   <rect x="90" y="90" width="90131" height="90131"/>
  </clipPath>
 </defs>
 <defs class="TextShapeIndex">
  <g ooo:slide="id1" ooo:id-list="id3 id4 id5 id6 id7 id8"/>
 </defs>
 <defs class="EmbeddedBulletChars">
  <g id="bullet-char-template-57356" transform="scale(0.00048828125,-0.00048828125)">
   <path d="M 580,1141 L 1163,571 580,0 -4,571 580,1141 Z"/>
  </g>
  <g id="bullet-char-template-57354" transform="scale(0.00048828125,-0.00048828125)">
   <path d="M 8,1128 L 1137,1128 1137,0 8,0 8,1128 Z"/>
  </g>
  <g id="bullet-char-template-10146" transform="scale(0.00048828125,-0.00048828125)">
   <path d="M 174,0 L 602,739 174,1481 1456,739 174,0 Z M 1358,739 L 309,1346 659,739 1358,739 Z"/>
  </g>
  <g id="bullet-char-template-10132" transform="scale(0.00048828125,-0.00048828125)">
   <path d="M 2015,739 L 1276,0 717,0 1260,543 174,543 174,936 1260,936 717,1481 1274,1481 2015,739 Z"/>
  </g>
  <g id="bullet-char-template-10007" transform="scale(0.00048828125,-0.00048828125)">
   <path d="M 0,-2 C -7,14 -16,27 -25,37 L 356,567 C 262,823 215,952 215,954 215,979 228,992 255,992 264,992 276,990 289,987 310,991 331,999 354,1012 L 381,999 492,748 772,1049 836,1024 860,1049 C 881,1039 901,1025 922,1006 886,937 835,863 770,784 769,783 710,716 594,584 L 774,223 C 774,196 753,168 711,139 L 727,119 C 717,90 699,76 672,76 641,76 570,178 457,381 L 164,-76 C 142,-110 111,-127 72,-127 30,-127 9,-110 8,-76 1,-67 -2,-52 -2,-32 -2,-23 -1,-13 0,-2 Z"/>
  </g>
  <g id="bullet-char-template-10004" transform="scale(0.00048828125,-0.00048828125)">
   <path d="M 285,-33 C 182,-33 111,30 74,156 52,228 41,333 41,471 41,549 55,616 82,672 116,743 169,778 240,778 293,778 328,747 346,684 L 369,508 C 377,444 397,411 428,410 L 1163,1116 C 1174,1127 1196,1133 1229,1133 1271,1133 1292,1118 1292,1087 L 1292,965 C 1292,929 1282,901 1262,881 L 442,47 C 390,-6 338,-33 285,-33 Z"/>
  </g>
  <g id="bullet-char-template-9679" transform="scale(0.00048828125,-0.00048828125)">
   <path d="M 813,0 C 632,0 489,54 383,161 276,268 223,411 223,592 223,773 276,916 383,1023 489,1130 632,1184 813,1184 992,1184 1136,1130 1245,1023 1353,916 1407,772 1407,592 1407,412 1353,268 1245,161 1136,54 992,0 813,0 Z"/>
  </g>
  <g id="bullet-char-template-8226" transform="scale(0.00048828125,-0.00048828125)">
   <path d="M 346,457 C 273,457 209,483 155,535 101,586 74,649 74,723 74,796 101,859 155,911 209,963 273,989 346,989 419,989 480,963 531,910 582,859 608,796 608,723 608,648 583,586 532,535 482,483 420,457 346,457 Z"/>
  </g>
  <g id="bullet-char-template-8211" transform="scale(0.00048828125,-0.00048828125)">
   <path d="M -4,459 L 1135,459 1135,606 -4,606 -4,459 Z"/>
  </g>
  <g id="bullet-char-template-61548" transform="scale(0.00048828125,-0.00048828125)">
   <path d="M 173,740 C 173,903 231,1043 346,1159 462,1274 601,1332 765,1332 928,1332 1067,1274 1183,1159 1299,1043 1357,903 1357,740 1357,577 1299,437 1183,322 1067,206 928,148 765,148 601,148 462,206 346,322 231,437 173,577 173,740 Z"/>
  </g>
 </defs>
 <defs class="TextEmbeddedBitmaps"/>
 <g>
  <g id="id2" class="Master_Slide">
   <g id="bg-id2" class="Background"/>
   <g id="bo-id2" class="BackgroundObjects"/>
  </g>
 </g>
 <g class="SlideGroup">
  <g>
   <g id="container-id1">
    <g id="id1" class="Slide" clip-path="url(#presentation_clip_path)">
     <g class="Page">
      <g class="com.sun.star.drawing.ClosedBezierShape">
       <g id="id3">
        <rect class="BoundingBox" stroke="none" fill="none" x="5671" y="35041" width="13633" height="15016"/>
        <path fill="rgb(55,123,181)" stroke="none" d="M 12987,35062 C 11616,35137 10147,35605 9054,36315 7307,37448 6213,39036 5790,41051 5689,41540 5671,41712 5671,42489 5667,43437 5697,43710 5914,44526 6668,47410 9146,49549 12242,49990 12877,50078 14037,50078 14663,49986 16114,49778 17680,49196 18786,48451 L 19205,48173 19219,45408 19227,42643 17022,42643 14817,42643 14817,43745 14817,44848 15920,44848 17022,44848 17022,45814 17022,46779 16529,47022 C 15510,47529 14540,47772 13561,47767 10963,47759 8789,45977 8313,43468 8224,43009 8224,42118 8308,41629 8498,40544 9058,39516 9861,38766 11911,36848 15091,36826 17499,38705 17812,38947 17878,38983 17927,38934 18054,38806 19316,37152 19302,37126 19285,37064 18791,36689 18420,36451 17269,35697 15598,35141 14306,35080 14041,35066 13768,35049 13693,35044 13622,35036 13305,35044 12987,35062 Z"/>
       </g>
      </g>
      <g class="com.sun.star.drawing.ClosedBezierShape">
       <g id="id4">
        <rect class="BoundingBox" stroke="none" fill="none" x="21534" y="38568" width="11049" height="11445"/>
        <path fill="rgb(55,123,181)" stroke="none" d="M 26764,38589 C 25693,38660 24687,38995 23845,39559 23465,39820 22725,40569 22469,40966 21754,42064 21428,43493 21565,44931 21825,47709 23585,49570 26328,49963 26508,49989 26976,50011 27364,50011 28766,50011 29900,49694 30932,49019 31302,48781 31973,48185 31973,48097 31973,48071 31858,47930 31721,47784 31580,47634 31293,47330 31082,47105 L 30694,46695 30314,47004 C 29737,47471 29075,47784 28334,47939 27933,48022 26985,48009 26614,47916 25913,47740 25199,47290 24771,46765 24537,46474 24206,45835 24105,45473 L 24039,45244 28290,45244 32537,45244 32568,44737 C 32647,43484 32378,41945 31924,41046 31188,39581 29750,38699 27959,38607 27704,38593 27439,38576 27364,38571 27293,38563 27020,38571 26764,38589 Z M 28334,40702 C 29335,41019 29992,41689 30248,42642 30297,42823 30350,43079 30363,43202 L 30394,43436 27192,43436 23990,43436 24017,43312 C 24145,42743 24295,42364 24542,41976 24987,41284 25657,40825 26486,40640 26941,40538 27924,40569 28334,40702 Z"/>
       </g>
      </g>
      <g class="com.sun.star.drawing.ClosedBezierShape">
       <g id="id5">
        <rect class="BoundingBox" stroke="none" fill="none" x="70438" y="38568" width="11049" height="11445"/>
        <path fill="rgb(55,123,181)" stroke="none" d="M 75668,38589 C 74597,38660 73591,38995 72749,39559 72369,39820 71629,40569 71373,40966 70658,42064 70332,43493 70469,44931 70729,47709 72489,49570 75232,49963 75412,49989 75880,50011 76268,50011 77670,50011 78804,49694 79836,49019 80206,48781 80877,48185 80877,48097 80877,48071 80762,47930 80625,47784 80484,47634 80197,47330 79986,47105 L 79598,46695 79218,47004 C 78641,47471 77979,47784 77238,47939 76837,48022 75889,48009 75518,47916 74817,47740 74103,47290 73675,46765 73441,46474 73110,45835 73009,45473 L 72943,45244 77194,45244 81441,45244 81472,44737 C 81551,43484 81282,41945 80828,41046 80092,39581 78654,38699 76863,38607 76608,38593 76343,38576 76268,38571 76197,38563 75924,38571 75668,38589 Z M 77238,40702 C 78239,41019 78896,41689 79152,42642 79201,42823 79254,43079 79267,43202 L 79298,43436 76096,43436 72894,43436 72921,43312 C 73049,42743 73199,42364 73446,41976 73891,41284 74561,40825 75390,40640 75845,40538 76828,40569 77238,40702 Z"/>
       </g>
      </g>
      <g class="com.sun.star.drawing.ClosedBezierShape">
       <g id="id6">
        <rect class="BoundingBox" stroke="none" fill="none" x="35057" y="38588" width="18836" height="11333"/>
        <path fill="rgb(55,123,181)" stroke="none" d="M 40446,38651 C 39202,38871 38250,39493 37624,40503 L 37482,40724 37482,39674 37482,38629 36270,38629 35057,38629 35057,44274 35057,49919 36265,49919 37478,49919 37496,46818 C 37509,43811 37513,43714 37606,43361 37875,42333 38435,41610 39269,41209 40697,40516 42303,40944 42907,42175 43215,42801 43215,42748 43215,46532 L 43215,49919 44446,49919 45676,49919 45698,46863 C 45716,44300 45729,43762 45786,43502 45958,42730 46219,42232 46695,41756 47255,41200 47855,40935 48662,40891 49892,40830 50862,41443 51224,42510 51391,43013 51418,43568 51418,46841 L 51418,49919 52657,49919 53892,49919 53874,46025 C 53861,42201 53857,42126 53764,41703 53376,39992 52335,38960 50686,38647 50135,38545 48865,38580 48335,38713 47546,38911 46955,39229 46457,39709 46117,40036 45773,40525 45597,40931 L 45487,41174 45231,40640 C 44993,40155 44935,40075 44543,39687 44172,39312 44062,39233 43656,39030 42951,38686 42651,38620 41650,38602 41055,38594 40706,38607 40446,38651 Z"/>
       </g>
      </g>
      <g class="com.sun.star.drawing.ClosedBezierShape">
       <g id="id7">
        <rect class="BoundingBox" stroke="none" fill="none" x="57194" y="38589" width="11757" height="15433"/>
        <path fill="rgb(55,123,181)" stroke="none" d="M 62530,38651 C 62102,38731 61481,38947 61132,39141 60709,39374 60219,39785 59928,40155 L 59664,40486 59664,39560 59664,38629 58429,38629 57194,38629 57194,46325 57194,54020 58429,54020 59664,54020 59664,51061 59664,48106 59928,48441 C 60554,49226 61503,49756 62623,49945 63298,50055 64466,50016 65079,49857 66010,49610 66645,49266 67293,48653 68122,47868 68612,46933 68863,45663 68978,45090 68978,43630 68863,43017 68643,41831 68180,40896 67434,40120 66676,39330 65710,38832 64590,38651 64087,38567 62984,38572 62530,38651 Z M 64175,40821 C 64718,41011 65009,41196 65441,41628 65741,41923 65864,42087 66023,42404 66380,43092 66517,43824 66451,44662 66407,45204 66310,45544 66049,46082 65855,46488 65780,46589 65423,46942 64753,47608 64052,47890 63059,47890 62429,47890 62005,47793 61472,47529 61172,47379 61018,47264 60700,46942 60365,46611 60263,46475 60091,46126 59761,45460 59690,45138 59690,44252 59690,43560 59699,43471 59809,43114 60140,42047 60810,41271 61736,40896 62213,40702 62495,40658 63170,40671 63730,40684 63822,40697 64175,40821 Z"/>
       </g>
      </g>
      <g class="com.sun.star.drawing.ClosedBezierShape">
       <g id="id8">
        <rect class="BoundingBox" stroke="none" fill="none" x="83123" y="47283" width="2671" height="2812"/>
        <path fill="rgb(55,123,181)" stroke="none" d="M 84124,47316 C 83851,47387 83630,47523 83441,47735 83211,47995 83123,48260 83123,48692 83123,49310 83361,49725 83851,49967 84120,50100 84160,50104 84526,50086 84971,50064 85205,49963 85461,49667 85717,49381 85792,49156 85792,48684 85792,48212 85717,47987 85465,47700 85183,47378 84574,47206 84124,47316 Z"/>
       </g>
      </g>
     </g>
    </g>
   </g>
  </g>
 </g>
</svg>